<svg width="75" height="42" viewBox="0 0 75 42" fill="none" xmlns="http://www.w3.org/2000/svg">
<path d="M12.6777 1V0.8H12.4777H9.19833H8.99833V1V25.5359C8.99833 26.7056 7.93516 27.7098 6.73883 27.7098C5.47784 27.7098 4.47933 26.7091 4.47933 25.5359V25.3359H4.27933H1H0.8V25.5359C0.8 28.7708 3.49019 31.3654 6.73883 31.3654C9.91771 31.3654 12.5359 28.9098 12.6775 25.7483L12.6777 25.7484V25.7394V1ZM35.6251 11.9066H35.4251V12.1066V21.3308C35.4251 24.811 32.5811 27.5741 29.0665 27.5741C25.6216 27.5741 22.7761 24.8123 22.7761 21.3308V12.1066V11.9066H22.5761H19.2968H19.0968V12.1066V21.3308C19.0968 26.8008 23.5602 31.2297 29.0665 31.2297C31.7542 31.2297 34.1714 30.214 35.9781 28.5167H38.9045H39.1045V28.3167V12.1066V11.9066H38.9045H35.6251ZM49.1965 1V0.8H48.9965H45.7172H45.5172V1V25.6038H45.517L45.5174 25.6127C45.6589 28.7741 48.2771 31.2297 51.456 31.2297H51.656V31.0297V27.7741V27.5741H51.456C50.195 27.5741 49.1965 26.5735 49.1965 25.4003V1ZM54.1931 11.9066H53.8888L54.0095 12.186L62.2422 31.2341L58.1422 40.9221L58.0246 41.2H58.3264H61.888H62.0204L62.0721 41.0781L74.3265 12.1847L74.4444 11.9066H74.1423H70.5897H70.4573L70.4056 12.0285L64.2341 26.5881L57.9292 12.0271L57.877 11.9066H57.7457H54.1931Z" fill="#111111" stroke="#111111" stroke-width="0.4"/>
</svg>
